<?xml version="1.0" encoding="iso-8859-1"?>
<!-- Generator: Adobe Illustrator 21.1.0, SVG Export Plug-In . SVG Version: 6.00 Build 0)  -->
<svg version="1.1" id="Layer_1" xmlns="http://www.w3.org/2000/svg" xmlns:xlink="http://www.w3.org/1999/xlink" x="0px" y="0px"
	 viewBox="0 0 100.353 100.353" style="enable-background:new 0 0 100.353 100.353;" xml:space="preserve">
<g>
	<path d="M20.581,65.913c-0.565-0.605-1.515-0.637-2.12-0.071c-0.605,0.566-0.637,1.516-0.071,2.12l10.697,11.439
		c0.295,0.316,0.695,0.476,1.096,0.476c0.367,0,0.735-0.134,1.024-0.404c0.605-0.566,0.637-1.516,0.071-2.12L20.581,65.913z"/>
	<path d="M93.25,8.903c-2.717-2.905-7.085-3.252-9.736-0.774l-7.545,7.062c-1.308,1.223-2.003,2.93-1.956,4.807
		c0.005,0.191,0.022,0.381,0.042,0.571L61.577,32.234c-7.485-5.128-17.174-4.698-23.49,1.212c-1.174,1.1-2.16,2.642-3.114,4.134
		c-1.31,2.049-2.664,4.167-4.22,4.68c-1.868,0.616-3.825,0.817-5.897,1.03c-3.988,0.411-8.507,0.875-12.611,4.712
		c-10.08,9.428-10.079,25.87,0.001,36.65c0.005,0.005,0.011,0.009,0.017,0.014c5.485,5.854,12.835,8.849,20.021,8.849
		c6.031,0,11.946-2.109,16.544-6.408c4.098-3.832,4.86-8.31,5.534-12.26c0.351-2.056,0.682-3.997,1.423-5.823
		c0.612-1.516,2.814-2.724,4.944-3.893c1.557-0.854,3.166-1.736,4.346-2.84c6.314-5.903,7.388-15.537,2.775-23.345L80.337,27.27
		c0.318,0.055,0.637,0.097,0.959,0.108c0.077,0.002,0.153,0.004,0.229,0.004c1.629,0,3.146-0.584,4.293-1.658l7.551-7.062
		C96.017,16.184,95.964,11.806,93.25,8.903z M63.026,60.1c-0.904,0.846-2.282,1.602-3.74,2.401c-2.591,1.422-5.27,2.892-6.281,5.396
		c-0.863,2.126-1.238,4.321-1.6,6.444c-0.652,3.822-1.267,7.432-4.626,10.573c-8.877,8.298-23.385,7.258-32.341-2.313
		c-0.001-0.001-0.002-0.001-0.003-0.002c-8.948-9.572-9.011-24.109-0.14-32.407c3.366-3.146,7.01-3.521,10.869-3.918
		c2.14-0.22,4.353-0.448,6.528-1.166c2.57-0.845,4.217-3.421,5.81-5.913c0.894-1.398,1.737-2.718,2.636-3.56
		c5.123-4.794,12.951-5.241,19.19-1.298L42.122,50.424c-0.291-0.12-0.591-0.227-0.899-0.319c-2.404-0.717-4.946-0.457-7.153,0.735
		c-2.207,1.192-3.816,3.173-4.534,5.577c-1.48,4.962,1.353,10.205,6.314,11.688c0.888,0.265,1.794,0.396,2.695,0.396
		c1.539,0,3.063-0.382,4.455-1.135c2.207-1.193,3.817-3.175,4.535-5.579c0.41-1.375,0.479-2.769,0.273-4.101
		c0.001-0.001,0.003-0.002,0.005-0.003L65.602,41.05C69.115,47.538,68.147,55.312,63.026,60.1z M44.661,60.93
		c-0.488,1.637-1.584,2.985-3.086,3.798c-1.503,0.813-3.23,0.992-4.865,0.503c-3.377-1.009-5.305-4.577-4.297-7.955
		c0.488-1.637,1.583-2.984,3.084-3.795c0.946-0.512,1.982-0.771,3.029-0.771c0.615,0,1.234,0.089,1.84,0.271
		C43.742,53.989,45.668,57.555,44.661,60.93z M64.888,37.61c-0.014,0.013-0.029,0.026-0.042,0.04L46.752,54.57
		c-0.516-0.935-1.194-1.777-2.003-2.494l30.375-28.4c0.276,0.449,0.594,0.878,0.964,1.274c0.37,0.396,0.779,0.746,1.214,1.052
		L64.888,37.61z M91.319,16.471l-7.55,7.061c0,0-0.001,0-0.001,0.001c-0.615,0.577-1.467,0.882-2.372,0.846
		c-1.138-0.038-2.273-0.577-3.116-1.479c-0.791-0.846-1.241-1.904-1.268-2.979c-0.025-1.009,0.331-1.911,1.006-2.541l7.545-7.062
		c0.613-0.573,1.411-0.851,2.248-0.851c1.132,0,2.335,0.508,3.248,1.484C92.644,12.647,92.76,15.123,91.319,16.471z"/>
</g>
</svg>
