<?xml version="1.0" encoding="iso-8859-1"?>
<!-- Generator: Adobe Illustrator 21.0.0, SVG Export Plug-In . SVG Version: 6.00 Build 0)  -->
<svg version="1.1" id="Layer_1" xmlns="http://www.w3.org/2000/svg" xmlns:xlink="http://www.w3.org/1999/xlink" x="0px" y="0px"
	 viewBox="0 0 100.353 100.353" style="enable-background:new 0 0 100.353 100.353;" xml:space="preserve">
<path style="fill:#231F20;" d="M82.592,35.377c0-0.005-0.001-0.01-0.002-0.016c-0.001-0.06-0.01-0.119-0.018-0.179
	c-0.005-0.04-0.006-0.081-0.015-0.121c-0.009-0.039-0.025-0.078-0.036-0.116c-0.017-0.058-0.033-0.116-0.057-0.17
	c-0.002-0.005-0.003-0.01-0.005-0.015C76.645,21.875,64.51,14.182,50,14.182c-19.75,0-35.817,16.067-35.817,35.816
	S30.25,85.813,50,85.813c7.505,0,14.689-2.296,20.778-6.64c0.675-0.481,0.831-1.418,0.35-2.092c-0.48-0.675-1.419-0.831-2.092-0.35
	C63.459,80.71,56.876,82.813,50,82.813c-18.096,0-32.817-14.721-32.817-32.815S31.905,17.182,50,17.182
	c13.391,0,24.155,6.757,29.592,18.542l0.007,19.038c0,4.156-3.38,7.536-7.535,7.536c-4.052,0-7.739-3.7-7.892-7.83
	c0.428-1.417,0.663-2.915,0.663-4.469c0-8.544-6.95-15.495-15.493-15.495c-8.545,0-15.496,6.951-15.496,15.495
	s6.951,15.495,15.496,15.495c5.328,0,10.036-2.705,12.825-6.812c1.763,3.821,5.634,6.617,9.897,6.617
	c5.81,0,10.535-4.727,10.535-10.537L82.592,35.377z M49.342,62.495c-6.891,0-12.496-5.605-12.496-12.495s5.605-12.495,12.496-12.495
	c6.889,0,12.493,5.605,12.493,12.495c0,1.234-0.187,2.424-0.521,3.551c-0.062,0.127-0.107,0.262-0.131,0.406
	C59.523,58.911,54.847,62.495,49.342,62.495z"/>
</svg>
